<svg xmlns="http://www.w3.org/2000/svg" width="320" height="240" viewBox="0 0 320 240">
<rect width="320" height="240" fill="#f3e3dd"/>

    <rect x="85" y="70" width="150" height="100" rx="8" fill="none" stroke="#c8452f" stroke-width="3"/>
    <rect x="98" y="85" width="11" height="8" rx="2" fill="none" stroke="#c8452f" stroke-width="1.5"/><rect x="113" y="85" width="11" height="8" rx="2" fill="none" stroke="#c8452f" stroke-width="1.5"/><rect x="128" y="85" width="11" height="8" rx="2" fill="none" stroke="#c8452f" stroke-width="1.5"/><rect x="143" y="85" width="11" height="8" rx="2" fill="none" stroke="#c8452f" stroke-width="1.5"/><rect x="158" y="85" width="11" height="8" rx="2" fill="none" stroke="#c8452f" stroke-width="1.5"/><rect x="173" y="85" width="11" height="8" rx="2" fill="none" stroke="#c8452f" stroke-width="1.5"/><rect x="188" y="85" width="11" height="8" rx="2" fill="none" stroke="#c8452f" stroke-width="1.5"/><rect x="203" y="85" width="11" height="8" rx="2" fill="none" stroke="#c8452f" stroke-width="1.5"/><rect x="218" y="85" width="11" height="8" rx="2" fill="none" stroke="#c8452f" stroke-width="1.5"/><rect x="98" y="105" width="11" height="8" rx="2" fill="none" stroke="#c8452f" stroke-width="1.5"/><rect x="113" y="105" width="11" height="8" rx="2" fill="none" stroke="#c8452f" stroke-width="1.5"/><rect x="128" y="105" width="11" height="8" rx="2" fill="none" stroke="#c8452f" stroke-width="1.5"/><rect x="143" y="105" width="11" height="8" rx="2" fill="none" stroke="#c8452f" stroke-width="1.5"/><rect x="158" y="105" width="11" height="8" rx="2" fill="none" stroke="#c8452f" stroke-width="1.5"/><rect x="173" y="105" width="11" height="8" rx="2" fill="none" stroke="#c8452f" stroke-width="1.5"/><rect x="188" y="105" width="11" height="8" rx="2" fill="none" stroke="#c8452f" stroke-width="1.5"/><rect x="203" y="105" width="11" height="8" rx="2" fill="none" stroke="#c8452f" stroke-width="1.5"/><rect x="218" y="105" width="11" height="8" rx="2" fill="none" stroke="#c8452f" stroke-width="1.5"/><rect x="98" y="125" width="11" height="8" rx="2" fill="none" stroke="#c8452f" stroke-width="1.5"/><rect x="113" y="125" width="11" height="8" rx="2" fill="none" stroke="#c8452f" stroke-width="1.5"/><rect x="128" y="125" width="11" height="8" rx="2" fill="none" stroke="#c8452f" stroke-width="1.5"/><rect x="143" y="125" width="11" height="8" rx="2" fill="none" stroke="#c8452f" stroke-width="1.5"/><rect x="158" y="125" width="11" height="8" rx="2" fill="none" stroke="#c8452f" stroke-width="1.5"/><rect x="173" y="125" width="11" height="8" rx="2" fill="none" stroke="#c8452f" stroke-width="1.5"/><rect x="188" y="125" width="11" height="8" rx="2" fill="none" stroke="#c8452f" stroke-width="1.5"/><rect x="203" y="125" width="11" height="8" rx="2" fill="none" stroke="#c8452f" stroke-width="1.5"/><rect x="218" y="125" width="11" height="8" rx="2" fill="none" stroke="#c8452f" stroke-width="1.5"/><rect x="98" y="145" width="11" height="8" rx="2" fill="none" stroke="#c8452f" stroke-width="1.5"/><rect x="113" y="145" width="11" height="8" rx="2" fill="none" stroke="#c8452f" stroke-width="1.5"/><rect x="128" y="145" width="11" height="8" rx="2" fill="none" stroke="#c8452f" stroke-width="1.5"/><rect x="143" y="145" width="11" height="8" rx="2" fill="none" stroke="#c8452f" stroke-width="1.5"/><rect x="158" y="145" width="11" height="8" rx="2" fill="none" stroke="#c8452f" stroke-width="1.5"/><rect x="173" y="145" width="11" height="8" rx="2" fill="none" stroke="#c8452f" stroke-width="1.5"/><rect x="188" y="145" width="11" height="8" rx="2" fill="none" stroke="#c8452f" stroke-width="1.5"/><rect x="203" y="145" width="11" height="8" rx="2" fill="none" stroke="#c8452f" stroke-width="1.5"/><rect x="218" y="145" width="11" height="8" rx="2" fill="none" stroke="#c8452f" stroke-width="1.5"/>
    <path d="M185 175 L175 195 L165 175" fill="none" stroke="#c8452f" stroke-width="2"/>
    <path d="M168 195 L182 195" stroke="#c8452f" stroke-width="2"/>
<text x="160" y="218" text-anchor="middle" font-family="serif" font-size="20" fill="#c8452f">便携蓝牙键盘 68 键</text>
</svg>